<svg xmlns:dc="http://purl.org/dc/elements/1.1/" xmlns:cc="http://creativecommons.org/ns#" xmlns:rdf="http://www.w3.org/1999/02/22-rdf-syntax-ns#" xmlns:svg="http://www.w3.org/2000/svg" xmlns="http://www.w3.org/2000/svg" xmlns:sodipodi="http://sodipodi.sourceforge.net/DTD/sodipodi-0.dtd" xmlns:inkscape="http://www.inkscape.org/namespaces/inkscape" version="1.1" x="0px" y="0px" viewBox="0 0 100 125"><g transform="translate(0,-952.36218)"><path style="text-indent:0;text-transform:none;direction:ltr;block-progression:tb;baseline-shift:baseline;color:#000000;enable-background:accumulate;" d="m 20.966736,959.36218 a 0.99822971,0.99973672 0 0 0 -0.249532,1.96804 l 13.973818,3.99854 7.174059,2.06175 -13.880244,0 a 0.99822971,0.99973672 0 0 0 -0.187149,0 1.0025098,1.0040233 0 1 0 0.187149,1.99928 l 13.849052,0 -7.142867,2.03051 -13.973818,3.99855 a 0.99822971,0.99973672 0 1 0 0.561448,1.90555 l 13.973818,-3.99854 13.693095,-3.90483 0,6.96621 a 0.99822971,0.99973672 0 0 0 0.99813,0.99964 l 2.99439,0 0,5.99782 -10.979429,0 c -3.300517,0 -5.98878,2.69232 -5.98878,5.99782 l 0,16.90008 a 0.99822971,0.99973672 0 0 0 0,0.094 l 0,15.9942 a 0.99822971,0.99973672 0 0 0 0,0.125 l 0,16.8689 c 0,3.3055 2.688263,5.9978 5.98878,5.9978 l 31.940156,0 c 3.300517,0 5.98878,-2.6923 5.98878,-5.9978 l 0,-16.8064 a 0.99822971,0.99973672 0 0 0 0,-0.1875 l 0,-15.9942 a 0.99822971,0.99973672 0 0 0 0,-0.094 l 0,-16.90008 c 0,-3.3055 -2.688263,-5.99782 -5.98878,-5.99782 l -10.979428,0 0,-5.99782 2.994389,0 a 0.99822971,0.99973672 0 0 0 0.99813,-0.99964 l 0,-15.99418 a 0.99822971,0.99973672 0 0 0 -0.99813,-0.99964 l -15.970078,0 a 0.99822971,0.99973672 0 0 0 -0.187149,0 0.99822971,0.99973672 0 0 0 -0.810981,0.99964 l 0,6.93498 -13.693095,-3.90484 -13.973818,-3.99854 a 0.99822971,0.99973672 0 0 0 -0.311916,-0.0625 z m 29.975089,2.03051 13.973818,0 0,13.99492 -13.973818,0 c 3.846942,0 6.986909,-3.1447 6.986909,-6.99746 0,-3.85275 -3.139965,-6.99746 -6.986909,-6.99746 z m 0,1.99928 c 2.768081,0 4.990649,2.22592 4.990649,4.99818 0,2.77227 -2.222566,4.99818 -4.990649,4.99818 l 0,-9.99636 z m -5.98878,4.90446 0.374299,0.0937 -0.374299,0.0937 a 0.99822971,0.99973672 0 0 0 0,-0.18744 z m 9.981299,9.09045 5.98878,0 0,5.99782 -5.98878,0 0,-5.99782 z m -12.975688,7.99709 14.971948,0 c 0,2.77813 -0.07844,5.47579 -0.187149,8.09081 -0.01934,0.005 -0.04305,-0.005 -0.06238,0 -6.646754,1.72968 -12.5633,3.26709 -18.184679,-0.12495 a 1.0084333,1.0099557 0 0 0 -0.530257,-0.12495 l 0,-3.84236 c 0,-2.23249 1.7634,-3.99855 3.99252,-3.99855 z m 16.968208,0 14.971948,0 c 2.22912,0 3.99252,1.76606 3.99252,3.99855 l 0,3.74864 c -3.697734,-1.57349 -7.304045,-1.93959 -10.79228,-1.68689 -2.869396,0.20787 -5.640391,0.85463 -8.328146,1.5307 0.09358,-2.46191 0.155958,-4.99218 0.155958,-7.591 z m 9.544617,7.9971 c 2.959689,-0.0748 5.952229,0.37379 9.014361,1.74936 a 1.0055348,1.0070529 0 0 0 0.40549,0.0937 l 0,10.15255 -19.962598,0 c 0.29904,-2.9631 0.565878,-6.50651 0.748597,-10.33998 3.24176,-0.82745 6.496211,-1.57234 9.79415,-1.65565 z m -30.505345,1.96803 c 6.050637,3.35006 12.396591,1.85247 18.683744,0.21867 -0.184612,3.58789 -0.435078,6.90193 -0.717406,9.68403 a 1.0040851,1.005601 0 0 0 0,0.1249 l -17.966338,0 0,-10.0276 z m 0,12.0269 39.925196,0 0,13.9949 -39.925196,0 0,-13.9949 z m 0,15.9942 14.878374,0 c -1.918438,4.9748 -4.739562,8.4017 -7.610741,11.2771 a 1.003619,1.0051342 0 1 0 1.434812,1.4058 c 3.043547,-3.0481 6.158001,-6.8115 8.20338,-12.3393 a 0.99822971,0.99973672 0 0 0 0.06238,-0.3436 l 22.956988,0 0,15.9942 c 0,2.2324 -1.7634,3.9985 -3.99252,3.9985 l -31.940156,0 c -2.22912,0 -3.99252,-1.7661 -3.99252,-3.9985 l 0,-15.9942 z" fill="#000000" fill-opacity="1" stroke="none" marker="none" visibility="visible" display="inline" overflow="visible"/></g><text x="0" y="115" fill="#000000" font-size="5px" font-weight="bold" font-family="'Helvetica Neue', Helvetica, Arial-Unicode, Arial, Sans-serif">Created by Jasfart</text><text x="0" y="120" fill="#000000" font-size="5px" font-weight="bold" font-family="'Helvetica Neue', Helvetica, Arial-Unicode, Arial, Sans-serif">from the Noun Project</text></svg>